<svg width="26" height="28" viewBox="0 0 26 28" fill="none" xmlns="http://www.w3.org/2000/svg">
<path d="M16.1252 27.5034C16.0759 27.5034 16.0512 27.5289 16.0512 27.5798V27.6562C16.0512 27.7071 16.0759 27.7326 16.1252 27.7326H25.889C25.963 27.7326 26 27.7071 26 27.6562V27.5798C26 27.5289 25.963 27.5034 25.889 27.5034H24.7426C23.9782 27.5034 23.4358 27.3633 23.1152 27.0832C22.8193 26.8031 22.5728 26.3447 22.3755 25.7081C21.1427 21.7863 19.9962 17.8645 18.936 13.9427C17.8758 10.0209 16.8279 6.07367 15.7923 2.10093C15.6444 1.56613 15.6444 1.12053 15.7923 0.764C15.9403 0.407467 16.2854 0.2292 16.8279 0.2292H19.047C19.1209 0.2292 19.1579 0.191 19.1579 0.1146V0.0764001C19.1579 0.0254668 19.1209 0 19.047 0H4.25322C4.15455 0 4.10527 0.0254668 4.10527 0.0764001V0.1146C4.10527 0.191 4.15455 0.2292 4.25322 0.2292H6.99007C7.48318 0.2292 7.72974 0.4584 7.72974 0.9168C7.72974 1.12053 7.70507 1.32427 7.65573 1.52793C7.60646 1.7062 7.52015 1.9736 7.39687 2.33013C7.17499 2.91587 6.90376 3.6162 6.5832 4.43113C6.28737 5.22053 5.97911 6.03547 5.65862 6.87587C5.33805 7.71627 5.02986 8.53113 4.73397 9.3206C4.43814 10.1101 4.17921 10.7977 3.95733 11.3833C3.48888 12.6312 3.00807 13.8536 2.51496 15.0505C2.04645 16.2474 1.62728 17.3933 1.25745 18.4884C0.887614 19.558 0.57942 20.5766 0.332864 21.5443C0.110976 22.4866 0 23.3525 0 24.1419C0 25.4916 0.320561 26.472 0.96162 27.0832C1.60268 27.6944 2.40399 28 3.3656 28C4.15455 28 4.86961 27.7835 5.51067 27.3506C6.15173 26.8922 6.75582 26.332 7.32293 25.6699C7.91465 24.9823 8.46941 24.2565 8.98719 23.4925C9.52963 22.7031 10.0844 21.9773 10.6515 21.3151C11.2186 20.6275 11.8103 20.0673 12.4267 19.6344C13.0678 19.176 13.7582 18.9468 14.4979 18.9468C15.6814 18.9468 16.5936 19.3033 17.2347 20.0164C17.8758 20.7294 18.3443 21.5443 18.6401 22.4611C18.8374 23.0214 18.9853 23.5561 19.0839 24.0655C19.2072 24.5748 19.3305 25.0332 19.4538 25.4407C19.5031 25.6699 19.5154 25.9118 19.4907 26.1665C19.4907 26.4211 19.4168 26.6503 19.2689 26.854C19.1456 27.0323 18.9237 27.1851 18.6031 27.3124C18.3072 27.4397 17.9004 27.5034 17.3826 27.5034H16.1252ZM6.28737 11.9945C7.69277 11.9945 8.71596 12.3256 9.35702 12.9877C9.99808 13.6244 10.3186 14.6685 10.3186 16.1201V20.0928C9.77619 20.5002 9.24611 20.9331 8.72833 21.3915C8.21055 21.8499 7.70507 22.2701 7.21196 22.6521C6.71884 23.0341 6.23803 23.3524 5.76959 23.6071C5.30108 23.8363 4.83264 23.9509 4.36413 23.9509C3.6738 23.9509 3.04504 23.7344 2.47793 23.3015C1.91087 22.8431 1.62728 22.0919 1.62728 21.0477C1.62728 20.4111 1.72596 19.6853 1.92318 18.8704C2.14506 18.03 2.39168 17.1896 2.66284 16.3493C2.95874 15.5089 3.25463 14.7067 3.55052 13.9427C3.84635 13.1787 4.09291 12.5293 4.29019 11.9945H6.28737ZM7.72974 2.75033C8.02563 1.98633 8.39546 1.4898 8.83924 1.2606C9.30775 1.0314 9.80086 0.904067 10.3186 0.8786V7.52527C10.3186 9.02773 10.0104 10.1101 9.39405 10.7722C8.7776 11.4343 7.74204 11.7653 6.28737 11.7653H4.36413C4.73397 10.7722 5.10386 9.779 5.4737 8.7858C5.84353 7.7672 6.1887 6.83767 6.50926 5.99727C6.82976 5.15687 7.08868 4.44387 7.2859 3.85813C7.50785 3.2724 7.65573 2.90313 7.72974 2.75033ZM16.9758 16.3111C17.0251 16.4893 17.0745 16.7058 17.1237 16.9605C17.1731 17.2151 17.1977 17.457 17.1977 17.6862C17.2224 17.9154 17.21 18.1319 17.1608 18.3356C17.1361 18.5139 17.0621 18.6412 16.9388 18.7176C16.8895 18.7431 16.8032 18.7558 16.68 18.7558C16.4334 18.7558 16.1375 18.7049 15.7923 18.603C15.4718 18.4757 15.028 18.412 14.4609 18.412C13.7705 18.412 13.1048 18.5648 12.4637 18.8704C11.8226 19.1505 11.1816 19.5071 10.5405 19.94V16.1201C10.5405 14.643 10.8364 13.5862 11.4281 12.9495C12.0446 12.3129 13.0802 11.9945 14.5348 11.9945H15.8293C16.0265 12.7076 16.2114 13.4334 16.3841 14.1719C16.5813 14.8849 16.7786 15.598 16.9758 16.3111ZM14.5348 11.7653C13.1294 11.7653 12.1062 11.4215 11.4652 10.734C10.8487 10.0464 10.5405 8.9768 10.5405 7.52527V0.8786C11.4035 0.904067 12.0446 1.09507 12.4637 1.4516C12.8829 1.80807 13.1788 2.29193 13.3514 2.90313C13.6225 3.87087 13.9678 5.1314 14.3869 6.68487C14.806 8.23827 15.2622 9.9318 15.7553 11.7653H14.5348Z" fill="#212529"/>
</svg>
